<?xml version="1.0" encoding="UTF-8"?>
<svg version="1.1" xmlns="http://www.w3.org/2000/svg" width="512" height="512">
<path d="M0 0 C1.17444516 -0.00754134 2.34889032 -0.01508268 3.55892473 -0.02285254 C5.51908082 -0.02769189 5.51908082 -0.02769189 7.51883602 -0.03262901 C8.90818212 -0.03950221 10.29752621 -0.04679048 11.68686813 -0.05446088 C15.52288563 -0.07426422 19.35890294 -0.08760467 23.19495118 -0.09980941 C26.48085735 -0.11105691 29.76674262 -0.1259949 33.05263377 -0.14093252 C64.20066015 -0.28205204 95.34915818 -0.34735545 126.49744415 -0.4002533 C130.55356079 -0.40726254 134.6096772 -0.41438946 138.66579342 -0.42163658 C139.67395723 -0.42343187 140.68212103 -0.42522717 141.72083526 -0.42707686 C158.0499764 -0.45713905 174.37879566 -0.52189885 190.70776845 -0.60032304 C207.463656 -0.6801332 224.21937683 -0.72593228 240.97545093 -0.73927915 C250.38693065 -0.74769159 259.7978402 -0.77148409 269.20913029 -0.83394814 C277.22541952 -0.88712341 285.24105849 -0.90991538 293.25751901 -0.89283796 C297.3480707 -0.88508436 301.43722411 -0.89193425 305.5275526 -0.93811989 C309.27457117 -0.98009621 313.01921693 -0.98032119 316.76630711 -0.9476897 C318.75970777 -0.94107704 320.75310428 -0.97879292 322.74612623 -1.01820624 C331.2908069 -0.88541054 331.2908069 -0.88541054 335.16104019 2.12271428 C337.18521523 4.37383534 338.92188509 6.64631914 340.6206274 9.14818764 C341.82525631 10.5829142 341.82525631 10.5829142 343.05422115 12.04662514 C343.71551022 12.86389076 344.37679928 13.68115639 345.0581274 14.52318764 C346.18541256 15.91150795 346.18541256 15.91150795 347.33547115 17.32787514 C348.08957272 18.25857826 348.84367428 19.18928139 349.6206274 20.14818764 C351.11963688 21.98233095 352.61963256 23.81566872 354.1206274 25.64818764 C356.31287886 28.32718683 358.50482209 31.00642972 360.69484615 33.68725014 C364.72993977 38.62483234 368.773597 43.55489011 372.8381567 48.468256 C374.06877661 49.96398762 375.29162038 51.46615093 376.50661373 52.97460365 C378.99250136 56.05037447 381.38454691 58.93037322 384.29640865 61.61693764 C389.48698114 66.55858391 390.08863348 70.97838424 390.29885006 77.90966225 C390.34523619 94.10208518 387.08164069 106.98211975 375.8550024 119.07396889 C368.5875637 125.82048978 359.32778334 130.367334 349.3393774 130.21850014 C348.45185787 130.20834877 347.56433834 130.1981974 346.64992428 130.18773842 C345.98025631 130.17468666 345.31058834 130.1616349 344.6206274 130.14818764 C344.62339278 131.35378397 344.62615816 132.5593803 344.62900734 133.80150986 C344.69397928 162.41919761 344.74344815 191.03688434 344.77382339 219.65462918 C344.77757552 223.17689619 344.78145848 226.69916305 344.78542233 230.22142982 C344.78620926 230.92265043 344.78699619 231.62387104 344.78780697 232.34634076 C344.80086128 243.70076528 344.82451526 255.05514425 344.85208579 266.40954174 C344.88013929 278.05999669 344.89657898 289.71042506 344.90289289 301.3609122 C344.90680787 307.90490875 344.91602542 314.44880196 344.93781757 320.99276543 C344.95815698 327.15028295 344.9644663 333.3076544 344.95995045 339.46520233 C344.96077678 341.72672061 344.96675746 343.98824371 344.97824383 346.24973297 C344.99314781 349.33505274 344.98958837 352.41981945 344.98139095 355.50515175 C344.99012948 356.40204755 344.998868 357.29894335 345.00787133 358.22301781 C344.97147186 363.28423279 344.43672224 366.76668751 341.6206274 371.14818764 C337.14787294 375.28548552 333.9543055 376.27234818 327.95833778 376.2796154 C326.77171034 376.28345655 325.58508289 376.28729769 324.36249703 376.29125524 C322.39736026 376.28995551 322.39736026 376.28995551 320.39252377 376.28862953 C318.9917778 376.29121255 317.59103257 376.29422553 316.19028836 376.29763293 C312.3321113 376.3057136 308.47395284 376.3074931 304.61576831 376.3082304 C300.45819814 376.31007909 296.30063766 376.31762548 292.14307308 376.32436562 C283.04809793 376.33795684 273.95312718 376.34397483 264.85814357 376.34837627 C259.18134292 376.35113725 253.50454398 376.35537433 247.82774448 376.35988045 C232.11637097 376.37207393 216.40499883 376.38237323 200.69362068 376.38575554 C199.68774759 376.38597511 198.6818745 376.38619467 197.64552041 376.38642089 C196.63721515 376.38663917 195.62890989 376.38685745 194.59004992 376.38708234 C192.54677562 376.38752581 190.50350132 376.38797237 188.46022701 376.38842201 C187.44668836 376.38864344 186.4331497 376.38886487 185.38889775 376.38909301 C168.96167766 376.393042 152.5345019 376.41049874 136.10729893 376.43378153 C119.24964822 376.45748196 102.39201977 376.46995679 85.53435212 376.47112346 C76.06618544 376.47204093 66.59807652 376.4778115 57.12992573 376.49594307 C49.06838493 376.51132637 41.00691974 376.51647499 32.94536706 376.50820497 C28.83122956 376.50429222 24.71724442 376.50525838 20.60312557 376.51926231 C16.83723137 376.53196388 13.07160459 376.53083691 9.30571095 376.5186716 C7.29712602 376.51577749 5.28853663 376.52767867 3.27998799 376.54009366 C2.0855373 376.53350382 0.89108661 376.52691397 -0.33955956 376.52012444 C-1.36849431 376.52072152 -2.39742907 376.52131861 -3.45754367 376.52193379 C-8.2182312 375.91296978 -11.45261629 374.15008635 -14.6918726 370.64818764 C-16.88793317 367.39476456 -17.50446506 364.94673444 -17.50242043 361.10896206 C-17.505407 359.8721054 -17.505407 359.8721054 -17.50845391 358.61026174 C-17.50554106 357.70462741 -17.50262822 356.79899309 -17.49962711 355.8659153 C-17.50048154 354.90371722 -17.50133596 353.94151914 -17.50221628 352.95016354 C-17.50386915 349.7118723 -17.49835283 346.47363235 -17.49289799 343.23534584 C-17.49261605 340.91966185 -17.49277398 338.60397777 -17.49334049 336.28829384 C-17.4936282 329.98907782 -17.48773569 323.68988072 -17.48076653 317.39066911 C-17.47452864 310.81229958 -17.47392885 304.23392966 -17.47274113 297.65555763 C-17.4701496 286.61004749 -17.46373056 275.56454399 -17.45481205 264.51903725 C-17.44563494 253.14143343 -17.43855557 241.76383151 -17.43430424 230.38622475 C-17.43404151 229.68506896 -17.43377879 228.98391317 -17.43350811 228.26151023 C-17.43220308 224.7440654 -17.43093937 221.22662056 -17.4296962 217.70917571 C-17.4193272 188.52217515 -17.40163776 159.33518149 -17.3793726 130.14818764 C-18.06059681 130.15802177 -18.74182102 130.16785591 -19.44368839 130.17798805 C-20.34019611 130.18563683 -21.23670383 130.1932856 -22.16037846 130.20116615 C-23.04785267 130.21100029 -23.93532688 130.22083443 -24.84969425 130.23096657 C-34.04757019 129.92998351 -42.95061927 124.42597219 -49.3793726 118.14818764 C-60.90777044 105.42798723 -63.59084677 91.86727898 -63.14890385 75.03490639 C-62.4261917 66.15887855 -57.69158164 61.86204308 -51.3793726 56.14818764 C-50.07168648 54.59515228 -48.79786436 53.01269099 -47.5668726 51.39818764 C-42.13941572 44.5524447 -36.54896619 37.84007742 -30.98923588 31.10180092 C-28.9461837 28.62250102 -26.9116606 26.13631594 -24.8793726 23.64818764 C-20.88862331 18.76556635 -16.88575659 13.89298167 -12.8793726 9.02318764 C-11.94254642 7.88333412 -11.94254642 7.88333412 -10.98679447 6.72045326 C-10.40478275 6.01340248 -9.82277103 5.3063517 -9.2231226 4.57787514 C-8.43711674 3.62243813 -8.43711674 3.62243813 -7.63523197 2.64769936 C-5.15390466 -0.31503633 -3.93849618 0.0173368 0 0 Z " fill="#415A6B" transform="translate(92.37937259674072,67.8518123626709)"/>
<path d="M0 0 C0.84531389 0.00291284 1.69062777 0.00582568 2.56155723 0.00882679 C3.45262607 0.00797237 4.34369491 0.00711794 5.26176584 0.00623763 C8.27133844 0.00458009 11.28085628 0.01010865 14.29042381 0.01555592 C16.43832724 0.01583776 18.58623076 0.01568012 20.73413414 0.01511341 C26.58513636 0.01482531 32.43611827 0.02072411 38.28711575 0.02768737 C44.3943728 0.03391878 50.50163026 0.03452454 56.60889 0.03571278 C68.18279932 0.03882673 79.75669925 0.04704096 91.33060443 0.05706227 C104.5032899 0.06822144 117.67597581 0.07373336 130.84866482 0.0787577 C157.95417499 0.08922353 185.0596768 0.10682419 212.16517967 0.12908131 C212.81060834 1.56421343 213.4542196 3.00016299 214.09706444 4.43645436 C214.45567055 5.23601048 214.81427665 6.0355666 215.18374962 6.85935169 C216.32970878 9.50958382 217.24683158 12.18472502 218.10267967 14.94158131 C219.4268021 19.03808506 220.9017447 22.9869075 222.60267967 26.94158131 C224.55195826 31.49787054 226.20340417 36.10411756 227.72767967 40.81658131 C229.79043009 47.18218758 232.22385183 53.2423586 235.21400779 59.22893482 C238.57811909 66.56631307 238.73386784 73.27276208 238.60267967 81.25408131 C238.60976951 82.47740162 238.61685936 83.70072193 238.62416404 84.96111256 C238.52560919 98.98622627 233.05943254 108.23158866 223.84486717 118.53142506 C221.80644271 120.47029856 219.8991801 121.46629333 217.16517967 122.12908131 C217.16517967 122.78908131 217.16517967 123.44908131 217.16517967 124.12908131 C204.8399963 130.11010617 189.09986491 132.43743699 175.89174217 127.86736256 C164.39840196 122.51959363 156.99195427 114.19040096 151.16517967 103.12908131 C150.59476951 102.09460865 150.59476951 102.09460865 150.01283592 101.03923756 C148.82980808 98.37333612 149.03439827 96.006272 149.16517967 93.12908131 C148.50517967 93.12908131 147.84517967 93.12908131 147.16517967 93.12908131 C147.14455467 94.40783131 147.12392967 95.68658131 147.10267967 97.00408131 C146.4032471 103.27927213 143.04361075 107.33490956 139.16517967 112.12908131 C138.55674217 112.90122975 137.94830467 113.67337818 137.32142967 114.46892506 C134.30246997 118.13007575 131.96122904 120.96640267 127.16517967 122.12908131 C127.16517967 122.78908131 127.16517967 123.44908131 127.16517967 124.12908131 C114.8399963 130.11010617 99.09986491 132.43743699 85.89174217 127.86736256 C74.39840196 122.51959363 66.99195427 114.19040096 61.16517967 103.12908131 C60.78490623 102.43943287 60.40463279 101.74978443 60.01283592 101.03923756 C58.82980808 98.37333612 59.03439827 96.006272 59.16517967 93.12908131 C58.50517967 93.12908131 57.84517967 93.12908131 57.16517967 93.12908131 C57.14455467 94.40783131 57.12392967 95.68658131 57.10267967 97.00408131 C56.4032471 103.27927213 53.04361075 107.33490956 49.16517967 112.12908131 C48.55674217 112.90122975 47.94830467 113.67337818 47.32142967 114.46892506 C44.30246997 118.13007575 41.96122904 120.96640267 37.16517967 122.12908131 C37.16517967 122.78908131 37.16517967 123.44908131 37.16517967 124.12908131 C24.8399963 130.11010617 9.09986491 132.43743699 -4.10825783 127.86736256 C-16.92251338 121.90498118 -24.59315522 112.19360121 -30.45982033 99.65642506 C-35.33033686 86.18930517 -33.40949029 67.83192587 -27.68150002 54.95842701 C-27.0473823 53.61449735 -26.39977341 52.27682223 -25.7366758 50.9469524 C-24.43780212 48.32881125 -23.32623581 45.64166603 -22.20982033 42.94158131 C-21.81665627 42.01345631 -21.42349221 41.08533131 -21.01841408 40.12908131 C-19.37926046 35.97439491 -18.01503793 31.73782853 -16.64121681 27.49040943 C-15.27563705 23.31448268 -13.67883802 19.36885267 -11.81138283 15.39861256 C-10.1515097 11.54106741 -8.93461129 7.53559302 -7.66685158 3.53533131 C-6.16416942 -0.81045372 -4.33793813 0.01134406 0 0 Z " fill="#FE7058" transform="translate(152.83482033014297,67.8709186911583)"/>
<path d="M0 0 C1.2009581 -0.0131424 1.2009581 -0.0131424 2.42617798 -0.02655029 C5.06535497 -0.04850592 7.70284782 -0.03400479 10.34204102 -0.01708984 C12.18140483 -0.02045944 14.02076647 -0.02531325 15.86012268 -0.03158569 C19.71279119 -0.03895208 23.56487949 -0.02826048 27.41748047 -0.00488281 C32.34850807 0.02358498 37.27817378 0.0072125 42.20915127 -0.02274513 C46.00712787 -0.0408417 49.8047834 -0.03504897 53.60276985 -0.02210617 C55.4203921 -0.01877763 57.23804377 -0.02283982 59.05563164 -0.03450394 C61.60036899 -0.04724969 64.14292456 -0.02778513 66.6875 0 C67.43418442 -0.01012115 68.18086884 -0.02024231 68.95018005 -0.03067017 C73.52505832 0.06155466 76.23215244 1.08700922 79.65939885 4.12081432 C81.86033782 6.81004663 81.64486342 9.35776867 81.62997437 12.74006653 C81.63510091 13.44262611 81.64022746 14.14518568 81.64550936 14.86903495 C81.65537414 17.21758638 81.62243084 19.56355187 81.58959961 21.91186523 C81.58790676 23.59730977 81.58885796 25.28275872 81.59225464 26.96820068 C81.5939763 31.54046074 81.55869906 36.11177656 81.51681089 40.68381715 C81.47930517 45.46304682 81.47577866 50.24229809 81.46865845 55.02165222 C81.45000912 64.07047415 81.40077093 73.11886119 81.34056151 82.16749161 C81.26095979 94.39593713 81.22857049 106.62450157 81.1935482 118.85314083 C81.13712859 138.1180772 81.01759671 157.38209582 80.90844727 176.64697266 C49.88844727 176.64697266 18.86844727 176.64697266 -13.09155273 176.64697266 C-13.29306791 133.96605942 -13.29306791 133.96605942 -13.33569336 116.10595703 C-13.36538293 103.76494989 -13.40032011 91.42411321 -13.46875 79.08325195 C-13.51855944 70.09618351 -13.5508377 61.1092531 -13.56199521 52.12205046 C-13.56851813 47.36256843 -13.58386609 42.60348131 -13.62020302 37.84412575 C-13.65412367 33.36498926 -13.6646137 28.88641062 -13.65709114 24.4071579 C-13.65846745 22.76280626 -13.66842365 21.1184361 -13.68758011 19.47419548 C-13.71245868 17.22880004 -13.70647941 14.98551066 -13.69282532 12.74006653 C-13.69743428 11.48366269 -13.70204325 10.22725885 -13.70679188 8.93278217 C-12.27051214 1.26203873 -6.95672917 -0.0940421 0 0 Z " fill="#D5DFEA" transform="translate(307.091552734375,246.35302734375)"/>
<path d="M0 0 C0.94065811 -0.00860046 1.88131622 -0.01720093 2.85047913 -0.02606201 C3.87552551 -0.03032196 4.9005719 -0.03458191 5.9566803 -0.03897095 C7.58410912 -0.05123718 7.58410912 -0.05123718 9.24441528 -0.06375122 C12.83477731 -0.08856567 16.42510002 -0.10510789 20.01551819 -0.11953735 C21.24125612 -0.12486103 22.46699406 -0.13018471 23.72987556 -0.13566971 C29.54496252 -0.159627 35.36003326 -0.17887421 41.17515558 -0.19169176 C47.21416044 -0.20526851 53.25279627 -0.23163279 59.29164124 -0.27822876 C65.77370168 -0.32743653 72.25541827 -0.35230355 78.73765755 -0.35942459 C81.20925716 -0.36615199 83.68084866 -0.38141233 86.15234184 -0.4053154 C89.60706303 -0.43683158 93.06044765 -0.43702386 96.51527405 -0.42959595 C97.5382962 -0.44600128 98.56131836 -0.46240662 99.61534119 -0.47930908 C104.00440369 -0.44061148 106.6126995 -0.25493367 110.43630981 2.01727295 C113.17980523 6.6329593 112.98447428 10.64295321 112.91590881 15.9234314 C112.92145782 17.00852997 112.92700684 18.09362854 112.932724 19.21160889 C112.94453082 22.79698906 112.92023271 26.38110842 112.89442444 29.96640015 C112.89271357 32.45834292 112.89277877 34.95028749 112.89454651 37.44223022 C112.89268087 43.33305983 112.86642833 49.22342662 112.83039522 55.1141367 C112.79582853 61.14063231 112.79937112 67.16677077 112.80612946 73.19334412 C112.80919835 78.33888909 112.79708138 83.4843076 112.77999878 88.62982178 C112.77296524 91.09858405 112.76984467 93.56736066 112.77069092 96.03613281 C112.76889414 99.48580855 112.74752123 102.93480972 112.72059631 106.3843689 C112.72352692 107.40582001 112.72645752 108.42727112 112.72947693 109.47967529 C112.62208897 118.39287626 112.62208897 118.39287626 109.30067444 122.15390015 C106.31547068 123.97208179 104.07400542 124.40825744 100.60134888 124.42805481 C99.66069077 124.43802994 98.72003265 124.44800507 97.75086975 124.45828247 C96.21330017 124.45927948 96.21330017 124.45927948 94.64466858 124.46029663 C93.55971603 124.46862015 92.47476349 124.47694366 91.35693359 124.48551941 C87.76652959 124.50963692 84.17630713 124.51839308 80.58583069 124.5249939 C78.09245752 124.53395773 75.59908492 124.54307953 73.10571289 124.55235291 C67.8778051 124.56884941 62.64994173 124.57657752 57.42201233 124.57943726 C52.05106539 124.58267196 46.68052541 124.60382666 41.30970764 124.64096069 C34.82762322 124.68510926 28.34592251 124.7049 21.86369133 124.70616341 C19.39210185 124.71037467 16.92051228 124.72284499 14.44900703 124.74368095 C10.9942441 124.77049139 7.54088814 124.76579993 4.08607483 124.75326538 C3.06305267 124.76809967 2.04003052 124.78293396 0.98600769 124.79821777 C-3.39267982 124.75290465 -6.01580507 124.55689825 -9.83694458 122.3039856 C-12.60511306 117.62182478 -12.3667883 113.50105457 -12.28282166 108.15316772 C-12.28515808 107.04374313 -12.28749451 105.93431854 -12.28990173 104.79127502 C-12.29151587 101.12651425 -12.25748896 97.46301352 -12.22276306 93.7984314 C-12.21597468 91.25446527 -12.21125186 88.71049287 -12.20851135 86.16651917 C-12.19783296 80.83765191 -12.17181506 75.50921083 -12.13145447 70.18051147 C-12.07455388 62.66112986 -12.05229174 55.14192878 -12.03616977 47.62236559 C-12.02221615 41.78519566 -11.99763028 35.94806305 -11.97276306 30.1109314 C-11.96785229 28.86153086 -11.96294151 27.61213032 -11.95788193 26.32486916 C-11.94166466 22.80533192 -11.91826198 19.28592541 -11.89219666 15.76644897 C-11.88793671 14.71551056 -11.88367676 13.66457214 -11.87928772 12.58178711 C-11.86638702 11.14968147 -11.86638702 11.14968147 -11.85322571 9.68864441 C-11.84765341 8.85630689 -11.84208111 8.02396936 -11.83633995 7.16640949 C-11.69932556 5.15390015 -11.69932556 5.15390015 -10.69932556 3.15390015 C-10.03932556 3.15390015 -9.37932556 3.15390015 -8.69932556 3.15390015 C-8.69932556 2.49390015 -8.69932556 1.83390015 -8.69932556 1.15390015 C-5.73387618 0.30164238 -3.08146031 0.02104924 0 0 Z " fill="#D5DFEA" transform="translate(135.69932556152344,246.84609985351563)"/>
<path d="M0 0 C1.70209877 0.00333092 1.70209877 0.00333092 3.43858337 0.00672913 C4.71983597 0.00680466 6.00108856 0.00688019 7.32116699 0.00695801 C8.73001646 0.01206542 10.13886554 0.01728143 11.54771423 0.02259827 C12.98118033 0.02446249 14.41464706 0.02588637 15.84811401 0.02688599 C19.62765755 0.03071079 23.40716288 0.04054075 27.18669128 0.05158997 C31.04075097 0.06180489 34.8948168 0.06638378 38.74888611 0.07142639 C46.31596085 0.08216306 53.88300407 0.09923903 61.45005798 0.12025452 C61.49648303 12.09049552 61.53197883 24.06071495 61.55368233 36.03102779 C61.56410107 41.58985522 61.57822539 47.14862085 61.60093689 52.70741272 C61.62273335 58.07609219 61.63464096 63.44471238 61.63981247 68.81343269 C61.64349602 70.85745234 61.650689 72.9014689 61.6615181 74.94546318 C61.67612342 77.81751793 61.67803215 80.68933047 61.67710876 83.56141663 C61.68429932 84.39867783 61.69148987 85.23593903 61.69889832 86.09857178 C61.6618072 96.82238694 59.11303932 103.73432043 52.45005798 112.12025452 C51.84290955 112.89240295 51.23576111 113.66455139 50.61021423 114.46009827 C45.23933195 120.9592184 45.23933195 120.9592184 40.45005798 122.12025452 C40.45005798 122.78025452 40.45005798 123.44025452 40.45005798 124.12025452 C28.12487462 130.10127937 12.38474322 132.42861019 -0.82337952 127.85853577 C-13.63763506 121.89615439 -21.30827691 112.18477442 -27.17494202 99.64759827 C-32.04545855 86.18047838 -30.12461197 67.82309908 -24.3966217 54.94960022 C-23.76250399 53.60567056 -23.1148951 52.26799544 -22.45179749 50.93812561 C-21.1529238 48.31998445 -20.0413575 45.63283924 -18.92494202 42.93275452 C-18.53177795 42.00462952 -18.13861389 41.07650452 -17.73353577 40.12025452 C-16.09438215 35.96556811 -14.73015962 31.72900174 -13.3563385 27.48158264 C-11.99075874 23.30565589 -10.39395971 19.36002588 -8.52650452 15.38978577 C-6.86663139 11.53224062 -5.64973298 7.52676623 -4.38197327 3.52650452 C-3.21500792 0.15161883 -3.21500792 0.15161883 0 0 Z " fill="#D6DEE9" transform="translate(149.54994201660156,67.87974548339844)"/>
<path d="M0 0 C21.12 0 42.24 0 64 0 C68.44128114 9.99288256 68.44128114 9.99288256 69.9375 14.8125 C71.26162243 18.90900375 72.73656503 22.85782619 74.4375 26.8125 C76.38677859 31.36878923 78.0382245 35.97503625 79.5625 40.6875 C81.62525042 47.05310627 84.05867216 53.11327729 87.04882812 59.09985352 C90.41293942 66.43723176 90.56868817 73.14368077 90.4375 81.125 C90.44458984 82.34832031 90.45167969 83.57164062 90.45898438 84.83203125 C90.36042952 98.85714497 84.89425287 108.10250735 75.6796875 118.40234375 C73.64126304 120.34121725 71.73400043 121.33721202 69 122 C69 122.66 69 123.32 69 124 C56.67481663 129.98102486 40.93468524 132.30835568 27.7265625 127.73828125 C16.23322229 122.39051232 8.8267746 114.06131966 3 103 C2.63777344 102.36707031 2.27554687 101.73414063 1.90234375 101.08203125 C-0.46700437 95.61509381 -0.13829485 89.62431333 -0.11352539 83.78173828 C-0.11367142 82.87378006 -0.11381744 81.96582184 -0.1139679 81.03034973 C-0.11327391 78.04364594 -0.10550563 75.05700533 -0.09765625 72.0703125 C-0.09579024 69.99380528 -0.0943672 67.91729761 -0.09336853 65.84078979 C-0.08955774 60.38609595 -0.07973975 54.9314289 -0.06866455 49.47674561 C-0.05661694 42.92630568 -0.05204134 36.37585678 -0.04621124 29.82540894 C-0.03652722 19.88358734 -0.01736058 9.9418245 0 0 Z " fill="#D6DEE9" transform="translate(301,68)"/>
<path d="M0 0 C7.6842265 -0.20925061 15.36815508 -0.36880294 23.05458832 -0.46630955 C26.62466092 -0.51313042 30.19277403 -0.57653707 33.76171875 -0.67895508 C37.21135943 -0.77732092 40.65912606 -0.83067107 44.11006165 -0.85389519 C46.05589738 -0.87842899 48.00098637 -0.94860303 49.94567871 -1.01966858 C58.66579526 -1.02460574 58.66579526 -1.02460574 62.55433655 1.96160889 C64.57627382 4.21677474 66.30752469 6.4920529 68 9 C68.80308594 9.95648438 69.60617187 10.91296875 70.43359375 11.8984375 C71.09488281 12.71570313 71.75617188 13.53296875 72.4375 14.375 C73.56478516 15.76332031 73.56478516 15.76332031 74.71484375 17.1796875 C75.84599609 18.57574219 75.84599609 18.57574219 77 20 C78.49900948 21.83414331 79.99900516 23.66748108 81.5 25.5 C83.69225146 28.1789992 85.88419468 30.85824208 88.07421875 33.5390625 C92.10931237 38.47664471 96.1529696 43.40670248 100.2175293 48.32006836 C101.44814921 49.81579999 102.67099297 51.31796329 103.88598633 52.82641602 C106.37187396 55.90218683 108.7639195 58.78218559 111.67578125 61.46875 C116.86635373 66.41039627 117.46800608 70.8301966 117.67822266 77.76147461 C117.72460879 93.95389755 114.46101329 106.83393212 103.234375 118.92578125 C95.95187432 125.6862845 86.73147929 130.10555023 76.75 130.25 C74.83287385 130.17800778 72.91616558 130.09415422 71 130 C69.97777344 130.00386719 68.95554687 130.00773438 67.90234375 130.01171875 C56.62261395 129.75131187 47.17513975 125.40998939 39 117.6875 C28.92350633 106.67452923 25.69886802 96.24088117 25.75 81.625 C25.5737787 70.11983973 23.92345921 61.12370432 18.88574219 50.81787109 C17.60721078 48.19385101 16.49311346 45.50807926 15.375 42.8125 C14.78525391 41.4203125 14.78525391 41.4203125 14.18359375 40 C12.54468525 35.8459349 11.18140748 31.60983595 9.80639648 27.36352539 C8.43423475 23.17126006 6.84370661 19.1918713 4.98046875 15.19921875 C0 4.02788845 0 4.02788845 0 0 Z " fill="#FE7058" transform="translate(365,68)"/>
<path d="M0 0 C1.06367294 0.00222061 2.12734589 0.00444122 3.22325134 0.00672913 C5.02500572 0.00684242 5.02500572 0.00684242 6.86315918 0.00695801 C8.17042465 0.01211929 9.47769012 0.01728058 10.8245697 0.02259827 C12.16835477 0.02446253 13.51214052 0.02588639 14.85592651 0.02688599 C18.39873622 0.0307105 21.94150515 0.0405402 25.48429871 0.05158997 C29.09706572 0.06180552 32.7098393 0.06638392 36.32261658 0.07142639 C43.41573225 0.08216254 50.50882019 0.09923816 57.60191345 0.12025452 C56.98973714 2.16563914 56.37293688 4.20964011 55.7542572 6.25306702 C55.41128601 7.39147034 55.06831482 8.52987366 54.71495056 9.70277405 C53.67835471 12.88554851 52.49177199 15.92425864 51.16441345 18.99525452 C49.20667128 23.5292893 47.55705155 28.11130352 46.03941345 32.80775452 C44.75756206 36.75845097 43.46742747 40.65546878 41.72691345 44.43275452 C41.41367126 45.13400452 41.10042908 45.83525452 40.7776947 46.55775452 C39.83291854 48.61680157 38.84018068 50.65380923 37.8323822 52.68275452 C32.78453922 63.55433655 31.82221536 73.41802043 31.86485291 85.37342834 C31.87485484 98.30957029 27.44209547 107.99256922 18.3714447 117.44447327 C13.16454023 122.12025452 13.16454023 122.12025452 10.60191345 122.12025452 C10.60191345 122.78025452 10.60191345 123.44025452 10.60191345 124.12025452 C2.60516474 127.24290423 -4.74614902 129.88225623 -13.39808655 130.12025452 C-14.25660217 130.19373108 -15.1151178 130.26720764 -15.99964905 130.34291077 C-26.63657843 130.94066328 -36.32961006 126.89767224 -44.4019928 120.06947327 C-56.6871168 108.07284533 -60.03875987 94.9518319 -60.25160217 78.20570374 C-60.04346899 70.27849159 -58.45019314 65.78766707 -52.86732483 60.21815491 C-51.39396949 58.83452462 -49.89653938 57.47666442 -48.39808655 56.12025452 C-47.09040043 54.56721916 -45.81657831 52.98475787 -44.58558655 51.37025452 C-39.15812967 44.52451158 -33.56768014 37.8121443 -28.00794983 31.0738678 C-25.96489765 28.5945679 -23.93037455 26.10838282 -21.89808655 23.62025452 C-17.90733726 18.73763323 -13.90447054 13.86504855 -9.89808655 8.99525452 C-8.96126038 7.855401 -8.96126038 7.855401 -8.00550842 6.69252014 C-7.4234967 5.98546936 -6.84148499 5.27841858 -6.24183655 4.54994202 C-5.45583069 3.594505 -5.45583069 3.594505 -4.65394592 2.61976624 C-2.56769765 0.12875984 -2.56769765 0.12875984 0 0 Z " fill="#FE7058" transform="translate(89.39808654785156,67.87974548339844)"/>
<path d="M0 0 C0.08829061 3.79151583 0.14081946 7.58276165 0.1875 11.375 C0.21263672 12.43589844 0.23777344 13.49679688 0.26367188 14.58984375 C0.39229633 28.56703451 -4.26448519 39.69241074 -13.765625 49.92578125 C-21.04812568 56.6862845 -30.26852071 61.10555023 -40.25 61.25 C-42.16712615 61.17800778 -44.08383442 61.09415422 -46 61 C-47.02222656 61.00386719 -48.04445313 61.00773437 -49.09765625 61.01171875 C-60.37738605 60.75131187 -69.82486025 56.40998939 -78 48.6875 C-82.09645409 44.23251082 -85.18656825 39.34090814 -88 34 C-88.35054443 33.43224854 -88.70108887 32.86449707 -89.06225586 32.27954102 C-90.33338513 29.18958163 -90.22457295 26.60131601 -90.1953125 23.265625 C-90.18886719 21.97011719 -90.18242187 20.67460937 -90.17578125 19.33984375 C-90.15907193 17.97655981 -90.14214206 16.61327856 -90.125 15.25 C-90.1149634 13.87110015 -90.10583873 12.49219335 -90.09765625 11.11328125 C-90.07408093 7.74201118 -90.0411727 4.37109364 -90 1 C-78.41311243 0.86955045 -66.82622418 0.73916078 -55.23933506 0.60884857 C-49.8596703 0.54834415 -44.48000579 0.48781872 -39.1003418 0.42724609 C-33.9132537 0.36884254 -28.72616499 0.31049313 -23.53907585 0.25218201 C-21.55543941 0.22987312 -19.57180319 0.20754439 -17.58816719 0.18519592 C-14.8199278 0.15401111 -12.05168763 0.12289547 -9.28344727 0.09179688 C-8.04051659 0.07777077 -8.04051659 0.07777077 -6.7724762 0.0634613 C-1.11405216 0 -1.11405216 0 0 0 Z " fill="#E64E3A" transform="translate(482,137)"/>
<path d="M0 0 C29.7 0 59.4 0 90 0 C90 33.33480176 90 33.33480176 78 47 C72.8951049 52 72.8951049 52 70 52 C70 52.66 70 53.32 70 54 C62.00325129 57.12264971 54.65193753 59.76200172 46 60 C45.14148438 60.07347656 44.28296875 60.14695313 43.3984375 60.22265625 C32.76150812 60.82040877 23.06847648 56.77741772 14.99609375 49.94921875 C6.83974658 41.98441006 2.74168498 33.96673991 0 23 C0 15.41 0 7.82 0 0 Z " fill="#E64E3A" transform="translate(30,138)"/>
<path d="M0 0 C3.27181955 3.27181955 2.29639193 7.28330218 2.32226562 11.73828125 C2.31743164 13.66220703 2.31743164 13.66220703 2.3125 15.625 C2.32861328 16.88441406 2.34472656 18.14382812 2.36132812 19.44140625 C2.36881864 33.71832336 -2.92959842 42.90561224 -12.3203125 53.40234375 C-14.35873696 55.34121725 -16.26599957 56.33721202 -19 57 C-19 57.66 -19 58.32 -19 59 C-31.32518337 64.98102486 -47.06531476 67.30835568 -60.2734375 62.73828125 C-71.76677771 57.39051232 -79.1732254 49.06131966 -85 38 C-85.36222656 37.36707031 -85.72445313 36.73414063 -86.09765625 36.08203125 C-89.99055984 27.09970391 -88 12.80115965 -88 5 C-44.44 4.505 -44.44 4.505 0 4 C0 2.68 0 1.36 0 0 Z " fill="#AFB5BB" transform="translate(389,133)"/>
<path d="M0 0 C0.33 1.32 0.66 2.64 1 4 C30.04 4.33 59.08 4.66 89 5 C89 35.67272727 89 35.67272727 80 47 C79.08927734 48.15822266 79.08927734 48.15822266 78.16015625 49.33984375 C72.78927397 55.83896389 72.78927397 55.83896389 68 57 C68 57.66 68 58.32 68 59 C55.67481663 64.98102486 39.93468524 67.30835568 26.7265625 62.73828125 C13.86687251 56.75475955 6.38137753 47.06384498 0.3515625 34.58984375 C-1.87286171 28.48592632 -1.35488359 22.02945439 -1.25 15.625 C-1.24484375 14.34238281 -1.2396875 13.05976563 -1.234375 11.73828125 C-1.15472274 2.30944549 -1.15472274 2.30944549 0 0 Z " fill="#AFB5BB" transform="translate(122,133)"/>
<path d="M0 0 C29.7 0 59.4 0 90 0 C90 30.67272727 90 30.67272727 81 42 C80.08927734 43.15822266 80.08927734 43.15822266 79.16015625 44.33984375 C73.78927397 50.83896389 73.78927397 50.83896389 69 52 C69 52.66 69 53.32 69 54 C56.67481663 59.98102486 40.93468524 62.30835568 27.7265625 57.73828125 C16.23322229 52.39051232 8.8267746 44.06131966 3 33 C2.63777344 32.36707031 2.27554688 31.73414063 1.90234375 31.08203125 C-1.99055984 22.09970391 0 7.80115965 0 0 Z " fill="#E54E3A" transform="translate(211,138)"/>
</svg>
